<svg xmlns="http://www.w3.org/2000/svg" width="64" height="64">
    <path style="stroke:none;fill-rule:nonzero;fill:#31293d;fill-opacity:1" d="M8 40h26.668a2.666 2.666 0 0 1 0 5.332H8A2.666 2.666 0 1 1 8 40m34.668 0H56a2.666 2.666 0 1 1 0 5.332H42.668a2.666 2.666 0 1 1 0-5.332m-40-8c0-7.363 5.969-13.332 13.332-13.332C18.668 12.398 24.8 8 32 8c9.148 0 16.64 7.094 17.332 16.078L50.668 24c5.84 0 10.586 4.691 10.664 10.668H56a5.335 5.335 0 0 0-5.332-5.336h-5.336v-2.664c0-7.363-5.969-13.336-13.332-13.336-6.668 0-12.133 4.855-13.172 11.176A8.303 8.303 0 0 0 16 24a8 8 0 0 0-8 8c0 .934.16 1.84.453 2.668h-5.52L2.669 32M8 50.668h5.332a2.666 2.666 0 1 1 0 5.332H8a2.666 2.666 0 1 1 0-5.332m13.332 0H56A2.666 2.666 0 1 1 56 56H21.332a2.666 2.666 0 0 1 0-5.332zm0 0"/>
</svg>
